<?xml version="1.0" encoding="UTF-8"?><svg id="Layer_1" xmlns="http://www.w3.org/2000/svg" xmlns:xlink="http://www.w3.org/1999/xlink" viewBox="0 0 357.17 130.39"><defs><style>.cls-1{clip-path:url(#clippath-11);}.cls-2{fill:url(#Unbenannter_Verlauf_12-6);}.cls-3{fill:url(#Unbenannter_Verlauf_12-11);}.cls-4{fill:url(#Unbenannter_Verlauf_12-5);}.cls-5{clip-path:url(#clippath-2);}.cls-6{clip-path:url(#clippath-6);}.cls-7{fill:url(#Unbenannter_Verlauf_12-3);}.cls-8{fill:url(#Unbenannter_Verlauf_12-4);}.cls-9{clip-path:url(#clippath-7);}.cls-10{clip-path:url(#clippath-1);}.cls-11{clip-path:url(#clippath-4);}.cls-12{fill:url(#Unbenannter_Verlauf_12-12);}.cls-13{fill:url(#Unbenannter_Verlauf_12-8);}.cls-14{fill:url(#Unbenannter_Verlauf_12-9);}.cls-15{clip-path:url(#clippath-9);}.cls-16{clip-path:url(#clippath);}.cls-17{fill:url(#Unbenannter_Verlauf_12-10);}.cls-18{fill:none;}.cls-19{clip-path:url(#clippath-3);}.cls-20{fill:url(#Unbenannter_Verlauf_12-2);}.cls-21{clip-path:url(#clippath-8);}.cls-22{clip-path:url(#clippath-5);}.cls-23{clip-path:url(#clippath-10);}.cls-24{fill:url(#Unbenannter_Verlauf_12-7);}.cls-25{fill:url(#Unbenannter_Verlauf_12);}</style><clipPath id="clippath"><path class="cls-18" d="M313.6,85.87c-3.07,1.82-5.5,4.27-7.31,7.35-1.81,3.08-2.71,6.44-2.71,10.08s.9,7,2.71,10.08c1.81,3.08,4.24,5.52,7.31,7.32,3.07,1.8,6.43,2.7,10.08,2.7,4.03,0,7.63-1.08,10.81-3.24,3.18-2.16,5.56-5.04,7.14-8.65l-7.34-1.97c-1.02,2.1-2.43,3.74-4.23,4.9-1.81,1.16-3.94,1.75-6.38,1.75s-4.51-.57-6.41-1.72c-1.9-1.15-3.4-2.71-4.49-4.67-1.09-1.97-1.64-4.14-1.64-6.51s.54-4.54,1.64-6.53c1.09-1.99,2.59-3.56,4.49-4.7,1.9-1.14,4.04-1.72,6.41-1.72s4.59,.63,6.44,1.89c1.84,1.26,3.3,2.92,4.35,4.98l7.23-2.09c-1.62-3.6-4.02-6.5-7.2-8.7-3.18-2.2-6.79-3.3-10.81-3.3-3.65,0-7.01,.91-10.08,2.73"/></clipPath><linearGradient id="Unbenannter_Verlauf_12" x1="155.59" y1="112.53" x2="158.95" y2="112.53" gradientTransform="translate(-30590.31 2454.21) rotate(31.1) scale(159.79 -159.79)" gradientUnits="userSpaceOnUse"><stop offset="0" stop-color="#688aba"/><stop offset=".3" stop-color="#9dbbff"/><stop offset=".71" stop-color="#deecff"/><stop offset="1" stop-color="#b2ebc4"/></linearGradient><clipPath id="clippath-1"><path class="cls-18" d="M164.37,61.28h4.09V26.82l-4.09-4.94V61.28ZM202.35,7.4V51.97L166.01,7.4h-1.64v5.16l40.45,48.71h1.63V7.4h-4.1Z"/></clipPath><linearGradient id="Unbenannter_Verlauf_12-2" x1="155.59" y1="112.46" x2="158.95" y2="112.46" xlink:href="#Unbenannter_Verlauf_12"/><clipPath id="clippath-2"><path class="cls-18" d="M130.74,7.4V40.85c0,23.19-33.31,23.26-33.31,0V7.4h-4.11V40.85c0,28.36,41.53,28.29,41.53,0V7.4h-4.11Z"/></clipPath><linearGradient id="Unbenannter_Verlauf_12-3" x1="155.59" y1="112.2" x2="158.95" y2="112.2" xlink:href="#Unbenannter_Verlauf_12"/><clipPath id="clippath-3"><path class="cls-18" d="M235.97,61.28h38.18v-4h-38.18v4Zm0-24.94h38.18v-4h-38.18v4Zm0-24.94h38.18V7.41h-38.18v4Z"/></clipPath><linearGradient id="Unbenannter_Verlauf_12-4" x1="155.59" y1="112.68" x2="158.95" y2="112.68" xlink:href="#Unbenannter_Verlauf_12"/><clipPath id="clippath-4"><path class="cls-18" d="M23.35,7.4v.08l21.05,32.22v21.59h4.18v-22.37L28.23,7.4h-4.88Zm41.47,0l-14.57,22.51,2.35,3.65L69.7,7.48v-.08h-4.88Z"/></clipPath><linearGradient id="Unbenannter_Verlauf_12-5" x1="155.59" y1="112.01" x2="158.95" y2="112.01" xlink:href="#Unbenannter_Verlauf_12"/><clipPath id="clippath-5"><path class="cls-18" d="M324.08,43.29l12.71,17.99h4.89v-.07l-15.13-21.42-2.47,3.5Zm12.71-35.88l-16.56,23.44-16.56-23.44h-4.89v.08l18.98,26.86-18.98,26.87v.07h4.89L341.69,7.48v-.08h-4.89Z"/></clipPath><linearGradient id="Unbenannter_Verlauf_12-6" x1="155.59" y1="112.89" x2="158.95" y2="112.89" xlink:href="#Unbenannter_Verlauf_12"/><clipPath id="clippath-6"><polygon class="cls-18" points="28.53 83.59 28.53 90.63 40.96 90.63 40.96 123.01 48.52 123.01 48.52 90.63 60.5 90.63 60.5 83.59 28.53 83.59"/></clipPath><linearGradient id="Unbenannter_Verlauf_12-7" x1="155.59" y1="111.63" x2="158.95" y2="111.63" xlink:href="#Unbenannter_Verlauf_12"/><clipPath id="clippath-7"><path class="cls-18" d="M86.03,90.4h10.16c1.85,0,3.36,.6,4.55,1.8,1.19,1.2,1.78,2.71,1.78,4.5s-.62,3.3-1.86,4.51c-1.24,1.2-2.77,1.8-4.57,1.8h-10.05v-12.61Zm-7.63-6.81v39.42h7.63v-13.4h7.56l8.19,13.4h8.64l-8.81-14.36c1.62-.56,3.05-1.43,4.29-2.62,1.24-1.18,2.21-2.55,2.91-4.11,.69-1.55,1.04-3.22,1.04-4.98,0-2.37-.6-4.57-1.81-6.62-1.2-2.04-2.84-3.67-4.91-4.9-2.07-1.22-4.38-1.83-6.95-1.83h-17.79Z"/></clipPath><linearGradient id="Unbenannter_Verlauf_12-8" x1="155.59" y1="111.79" x2="158.95" y2="111.79" xlink:href="#Unbenannter_Verlauf_12"/><clipPath id="clippath-8"><path class="cls-18" d="M146.61,88.43l6.49,19.49h-13.15l6.66-19.49Zm-5.87-4.84l-13.78,39.42h7.91l2.88-8.22h17.62l2.77,8.22h7.85l-13.5-39.42h-11.74Z"/></clipPath><linearGradient id="Unbenannter_Verlauf_12-9" x1="155.59" y1="111.96" x2="158.95" y2="111.96" xlink:href="#Unbenannter_Verlauf_12"/><clipPath id="clippath-9"><polygon class="cls-18" points="183.35 83.59 183.35 123.01 190.97 123.01 190.97 108.11 212.21 108.11 212.21 101.3 190.97 101.3 190.97 90.63 212.21 90.63 212.21 83.59 183.35 83.59"/></clipPath><linearGradient id="Unbenannter_Verlauf_12-10" x1="155.59" y1="112.13" x2="158.95" y2="112.13" xlink:href="#Unbenannter_Verlauf_12"/><clipPath id="clippath-10"><polygon class="cls-18" points="230.17 83.59 230.17 123.01 237.79 123.01 237.79 108.11 259.03 108.11 259.03 101.3 237.79 101.3 237.79 90.63 259.03 90.63 259.03 83.59 230.17 83.59"/></clipPath><linearGradient id="Unbenannter_Verlauf_12-11" x1="155.59" y1="112.28" x2="158.95" y2="112.28" xlink:href="#Unbenannter_Verlauf_12"/><clipPath id="clippath-11"><rect class="cls-18" x="277.49" y="83.59" width="7.62" height="39.42"/></clipPath><linearGradient id="Unbenannter_Verlauf_12-12" x1="155.59" y1="112.4" x2="158.95" y2="112.4" xlink:href="#Unbenannter_Verlauf_12"/></defs><rect class="cls-18" x="0" width="357.17" height="130.39"/><g class="cls-16"><polygon class="cls-25" points="313.74 66.32 359.55 93.88 331.52 140.22 285.72 112.66 313.74 66.32"/></g><g class="cls-10"><polygon class="cls-20" points="175.6 -11.16 230.34 21.78 195.22 79.85 140.48 46.91 175.6 -11.16"/></g><g class="cls-5"><polygon class="cls-7" points="104.4 -10.92 162.26 23.9 123.77 87.54 65.91 52.72 104.4 -10.92"/></g><g class="cls-19"><polygon class="cls-8" points="246.16 -9.44 298.04 21.78 263.96 78.12 212.08 46.91 246.16 -9.44"/></g><g class="cls-11"><polygon class="cls-4" points="35.72 -13.05 93.59 21.78 57.33 81.73 -.54 46.91 35.72 -13.05"/></g><g class="cls-22"><polygon class="cls-2" points="310.23 -11.53 365.58 21.78 330.24 80.21 274.89 46.91 310.23 -11.53"/></g><g class="cls-6"><polygon class="cls-24" points="37.06 69.49 77.98 94.11 51.97 137.11 11.05 112.5 37.06 69.49"/></g><g class="cls-9"><polygon class="cls-13" points="86.94 69.46 127.9 94.11 101.87 137.14 60.92 112.5 86.94 69.46"/></g><g class="cls-21"><polygon class="cls-14" points="137.37 66.38 183.46 94.11 155.56 140.23 109.47 112.5 137.37 66.38"/></g><g class="cls-15"><polygon class="cls-17" points="191.05 70.86 229.69 94.11 204.51 135.75 165.87 112.5 191.05 70.86"/></g><g class="cls-23"><polygon class="cls-3" points="237.87 70.86 276.51 94.11 251.33 135.74 212.69 112.5 237.87 70.86"/></g><g class="cls-1"><polygon class="cls-12" points="279.53 80.23 302.59 94.11 283.08 126.38 260.01 112.5 279.53 80.23"/></g></svg>