<?xml version="1.0" encoding="UTF-8"?>
<svg id="a" data-name="Layer 1" xmlns="http://www.w3.org/2000/svg" viewBox="0 0 1024 1024">
  <defs>
    <style>
      .b {
        fill: #04a964;
      }

      .c {
        fill: #213ac7;
      }
    </style>
  </defs>
  <path class="b" d="M142.1,433.95l1.04,27.21c3.83,100.4,61.03,206.88,138.79,271.25,37.45,31,79.94,54.9,126.38,69.16,24.64,7.56,49.37,12.57,75,14.69,73.97,6.13,147.28-11.23,210.66-49.71,31.38-19.05,57.23-39.91,82.39-66.83,34.51-36.93,61.55-79.99,79.87-127.37,16.91-43.74,25.21-90.43,25.89-137.5.16.15.6.31.74.85,2.23,8.29,7.34,15.68,15.26,19.7,9.44,4.78,20.96,4.45,29.85-1.09,7.48-4.66,12.09-11.83,14.29-20.25.05-.75.8-.86.74-.07-.36,22.4-1.29,43.82-5.14,65.55-2.95,16.66-6,32.58-10.73,48.81-9.8,33.61-26.37,76.14-44.91,105.52l-15.78,25c-7.02,11.12-24.36,33.65-33.12,43.5l-11.82,13.29-6.21,6.73c-4.45,4.82-9,8.85-13.81,13.56l-88.6,86.78-40.96,40.13-23.88,23.53-22.75,22.38-22.39,22.1-21.69,21.24-23.64,22.99c-5.46,5.31-10.47,10.39-15.8,15.89-8.32,8.58-19.7,13.53-31.86,12.96-10.78-.51-19.87-5.66-27.56-13.2l-119.7-117.38-37-36.32-108.06-106.07c-46.69-45.83-84.71-103.45-108.05-164.34-18.21-47.49-28.72-100.8-28.55-151.07.75.2,1,.98,1.25,1.8,3.36,11.18,12.31,18.63,22.8,20.87,11.53,2.46,23.42-1.81,30.46-11.2,2.65-3.53,4.11-7.52,5.67-11.59.13-.33.13-.69.11-1.04-.05-.75.56-1.42.82-.47Z"/>
  <path class="c" d="M943,433.99c.06-.79-.69-.68-.74.07-2.19,8.42-6.81,15.59-14.29,20.25-8.89,5.54-20.41,5.87-29.85,1.09-7.92-4.01-13.03-11.41-15.26-19.7-.05-.17-.13-.31-.22-.42-.4-.47-.54-1.11-.56-1.73-1.72-68.87-18.67-133.42-54.37-193.06-25.47-42.56-58.8-79.24-98.5-108.89-62.63-46.79-138.83-72-217.15-72.07-83.73-.07-176.79,32.58-237.94,88.41l-12.55,11.45c-45.66,41.69-81.68,100.44-100.89,159.47-11.77,36.17-17.62,73.54-18.54,111.37-.03,1.42,1.05,2.48-.07,3.71-.26-.96-.88-.29-.82.47.03.35.02.71-.11,1.04-1.56,4.06-3.02,8.05-5.67,11.59-7.04,9.39-18.93,13.67-30.46,11.2-10.49-2.24-19.44-9.69-22.8-20.87-.16-.52-.31-1.01-.59-1.36-.38-.48-.67-1.03-.67-1.65-.51-49.01,7.72-97.5,23.68-144.07,16.96-49.48,43.37-95.08,76.73-135.22C236.35,88.93,314,38.17,397.18,15.4c96.06-26.3,199.79-18.94,290.77,22.29,45.31,20.53,86.67,48.49,122.44,83.04,59.54,57.5,102.06,130.79,120.93,211.49,7.88,33.71,12.23,67.73,11.68,101.76Z"/>
  <g>
    <path class="c" d="M536.84,765.14c-17.13.46-33.25.56-49.82-.08-7.66-.3-14.46-3.16-19.99-8.04-.11-.1-.22-.21-.32-.33-3.96-4.6-5.82-10.06-6.44-16.15l-4.3-41.83c-.12-1.14-.95-2.08-2.06-2.35-24.19-5.88-46.58-15.7-68.08-28.89-.91-.56-2.08-.55-2.96.07-12.69,8.83-24.66,20.9-36.66,29.3-9.84,6.88-22,6.43-31.19-1.2-8.67-7.19-16.15-15.07-24.16-23.04-6.09-6.06-12.19-11.67-17.19-18.57-7.82-9.73-7.32-22.41.54-31.91l27.93-33.78c.73-.89.82-2.13.23-3.12-12.77-21.32-21.89-43.79-27.64-67.59-.27-1.1-1.18-1.93-2.31-2.06l-45.87-5.48c-12.13-1.96-20.08-11.32-20.83-23.58-.32-17.56-.5-34.8.09-52.43.23-6.91,2.1-13.3,6.33-18.49.08-.1.16-.19.25-.28,5.09-5.08,11.41-6.99,18.48-7.76l41.53-4.52c1.13-.12,2.06-.94,2.33-2.04,5.92-23.62,14.63-45.96,27.18-66.63.52-.86.54-1.95.01-2.81-3.5-5.62-7.7-10.23-11.8-15.31l-16.26-20.12c-8.67-10.73-6.91-24.27,2.15-34.42,12.44-13.94,25.72-26.77,39.64-39.14.1-.08.2-.17.3-.24,9.9-6.88,21.56-6.71,31,.67l34.24,28.33c.89.73,2.14.82,3.13.23,21.8-13.13,45.03-23.06,69.79-29.03,1.11-.27,1.93-1.19,2.06-2.32l5.14-44.84c1.29-11.21,9.6-18.62,20.61-20.64.12-.02.25-.04.38-.05,19.66-1.27,39.15-1.24,58.64-.13.12,0,.24.02.36.04,12.7,2.18,20.57,10.76,21.97,23.19l4.78,42.49c.13,1.13.95,2.06,2.06,2.33,24.88,6,47.68,15.55,69.32,28.91,1,.61,2.27.53,3.17-.22l18.66-15.65c5.79-4.86,11.36-9.63,17.56-13.83,11.07-7.5,24.32-5.04,33.61,4.19l28.33,28.18c3.06,3.04,5.63,6.28,8.42,9.47,8.77,10.03,8.21,23.89-.14,34.05l-24.88,30.27c-.91,1.11-3.14,3.37-2.23,4.99,12.09,21.6,21.68,43.88,27.36,67.88.26,1.11,1.19,1.95,2.33,2.08l44.83,5.07c12.28,1.39,20.46,10.45,21.31,22.84,0,.08,0,.15,0,.23l.19,57.27c0,.13,0,.26-.02.39-1.38,10.87-8.27,19.72-19.34,21.09l-46.84,5.81c-1.11.14-2.02.95-2.29,2.04-5.9,23.59-14.88,46.03-27.52,67.03-.54.9-.53,2.03.05,2.9,3.34,4.97,7.08,9.11,10.79,13.71l17.59,21.81c9.2,11.41,6.05,25.91-3.3,35.39l-20.62,20.89c-6.02,6.09-11.73,12.05-18.58,17.2-10.31,7.73-23.69,6.22-33.4-1.91l-32.37-27.11c-.89-.75-2.16-.83-3.15-.23-22.03,13.37-44.14,23-68.68,29.26-1.1.28-1.91,1.21-2.03,2.33l-4.91,45.5c-.54,4.98-3,9.13-6.25,12.65-.09.09-.18.18-.28.27-5.5,4.74-12.07,7.61-19.94,7.82ZM684.92,459.14c0-95.51-77.42-172.93-172.93-172.93s-172.93,77.42-172.93,172.93,77.42,172.93,172.93,172.93,172.93-77.42,172.93-172.93Z"/>
    <path class="b" d="M489,505.55l-7.65-24.45c-.27-.86-.95-1.53-1.81-1.79l-100.41-30.28c-2.39-.72-2.62-4.02-.35-5.07,9.95-4.62,19.38-8.2,29.25-12.32l141.7-59.23,19.49-7.96c11.69-4.78,22.85-9.89,34.99-14.51,2.2-.84,4.35,1.33,3.5,3.52l-27.42,70.85-22.15,57.45-24.53,63.02-14.99,38.36c-.93,2.39-4.35,2.27-5.12-.17l-24.5-77.42ZM502.55,460.03l13.57,44.16c.71,2.32,3.88,2.61,5,.45h0s.05-.09.07-.14l39.99-103.36c.86-2.23-1.37-4.4-3.57-3.49l-101.17,42.02c-2.35.98-2.19,4.36.25,5.1l44.07,13.45c.86.26,1.54.94,1.8,1.8Z"/>
  </g>
</svg>
